<?xml version="1.0" standalone="no"?>
<!DOCTYPE svg PUBLIC "-//W3C//DTD SVG 20010904//EN"
 "http://www.w3.org/TR/2001/REC-SVG-20010904/DTD/svg10.dtd">
<svg version="1.0" xmlns="http://www.w3.org/2000/svg"
 width="124" height="45" viewBox="0 0 635.000000 521.000000"
 preserveAspectRatio="xMidYMid meet">

<g transform="translate(0.000000,521.000000) scale(0.100000,-0.100000)"
fill="#fff" stroke="none">
<path d="M130 5100 c0 -5 107 -278 239 -607 131 -329 278 -699 326 -823 49
-124 149 -378 223 -565 74 -187 168 -425 209 -530 41 -104 118 -299 170 -433
l97 -242 131 0 131 0 23 47 c13 27 58 125 101 218 43 94 139 301 215 460 75
160 159 337 185 395 26 58 94 204 150 325 56 121 190 411 297 645 107 234 266
576 354 761 87 184 159 341 159 347 0 9 -53 12 -217 10 l-216 -3 -151 -326
c-83 -179 -189 -409 -235 -510 -104 -228 -621 -1347 -687 -1487 -26 -56 -52
-101 -56 -100 -12 4 -240 549 -752 1798 -40 96 -114 277 -166 403 l-93 227
-219 0 c-134 0 -218 -4 -218 -10z"/>
<path d="M3240 4633 c-123 -263 -326 -696 -450 -963 -204 -437 -356 -762 -706
-1508 -63 -133 -114 -247 -114 -253 0 -6 88 -8 240 -7 l240 3 191 390 c255
521 498 1022 649 1340 26 55 88 183 137 285 49 102 112 232 138 290 55 119 53
115 60 108 5 -5 14 -46 120 -566 41 -200 106 -511 145 -690 38 -180 101 -480
140 -667 102 -492 101 -489 125 -493 17 -2 102 162 628 1214 l607 1216 2
-1213 3 -1214 233 -3 232 -2 0 1605 0 1605 -277 -2 -277 -3 -223 -455 c-340
-694 -718 -1458 -720 -1457 -1 1 -83 407 -182 902 -100 495 -187 925 -194 955
l-12 55 -255 3 -255 2 -225 -477z"/>
<path d="M562 1169 c-129 -16 -228 -65 -309 -153 -166 -179 -187 -470 -49
-670 168 -245 581 -291 796 -90 27 26 50 50 50 54 0 5 -27 31 -60 60 l-60 52
-32 -21 c-18 -12 -62 -36 -98 -53 -58 -30 -74 -33 -150 -33 -73 0 -94 4 -148
29 -70 32 -124 86 -156 155 -31 67 -31 235 1 303 29 63 91 129 149 158 106 53
282 31 372 -45 l42 -36 27 19 c16 11 47 40 71 65 l43 44 -44 40 c-111 103
-266 145 -445 122z"/>
<path d="M3653 1170 c-167 -23 -279 -128 -290 -274 -13 -162 66 -251 282 -317
153 -46 185 -59 218 -89 25 -22 31 -35 30 -65 -4 -135 -249 -156 -410 -34
l-57 43 -58 -64 c-32 -36 -58 -70 -58 -76 0 -21 126 -104 200 -131 67 -25 88
-28 200 -28 107 1 133 4 185 24 117 47 195 156 195 274 0 154 -82 228 -340
307 -151 46 -190 75 -190 145 0 33 44 81 87 96 75 24 208 -3 280 -57 l31 -24
61 68 60 67 -26 27 c-78 81 -250 128 -400 108z"/>
<path d="M4710 1170 c-115 -16 -188 -45 -270 -107 -100 -76 -171 -202 -189
-336 -47 -331 189 -597 527 -597 159 0 285 51 393 159 130 131 178 310 134
499 -42 177 -186 323 -361 366 -79 20 -167 26 -234 16z m223 -214 c113 -55
180 -169 181 -306 1 -138 -66 -250 -182 -307 -50 -24 -68 -28 -147 -28 -70 1
-100 5 -136 22 -209 95 -262 387 -100 556 68 72 136 98 247 94 64 -3 93 -9
137 -31z"/>
<path d="M5810 1170 c-121 -19 -201 -64 -249 -139 -41 -65 -57 -145 -43 -216
26 -126 114 -192 341 -256 168 -47 218 -98 176 -179 -25 -49 -68 -65 -170 -65
-76 0 -99 4 -145 26 -31 14 -73 41 -94 59 l-37 33 -59 -64 c-33 -35 -59 -68
-60 -72 0 -15 58 -64 116 -97 135 -76 346 -92 470 -36 121 55 184 148 184 271
-1 159 -69 219 -349 306 -126 39 -175 76 -175 131 0 20 8 48 18 63 49 75 221
73 337 -5 l44 -29 52 57 c29 31 52 62 53 69 0 16 -45 58 -95 87 -80 48 -214
71 -315 56z"/>
<path d="M1242 788 c3 -361 4 -375 26 -429 59 -148 201 -229 402 -229 222 0
367 99 416 285 10 37 14 140 14 398 l0 347 -105 0 -105 0 0 -332 c0 -198 -4
-348 -10 -370 -14 -50 -55 -97 -105 -119 -48 -22 -161 -25 -208 -5 -43 17 -93
76 -106 123 -7 23 -11 169 -11 371 l0 332 -106 0 -105 0 3 -372z"/>
<path d="M2330 660 l0 -500 100 0 100 0 2 163 3 162 94 0 94 0 94 -163 95
-162 114 0 c70 0 114 4 114 10 0 6 -49 90 -109 187 l-110 177 50 26 c63 32
120 85 145 136 15 31 19 60 19 144 0 99 -2 108 -31 159 -21 37 -49 67 -85 93
-86 60 -135 68 -431 68 l-258 0 0 -500z m529 302 c56 -28 76 -64 76 -135 0
-72 -18 -103 -80 -139 -35 -20 -56 -23 -182 -26 l-143 -4 0 161 0 161 148 0
c118 -1 154 -4 181 -18z"/>
</g>
</svg>
